# 3ds Max Wavefront OBJ Exporter v0.97b - (c)2007 guruware
# File Created: 06.08.2021 16:39:46

#
# object Shape_IndexedFaceSet_011
#

v  0.0704 0.7279 -6.0908
v  1.7589 0.2142 -6.6025
v  0.0703 0.7274 -6.6028
v  1.7590 0.2147 -6.0905
v  1.7590 0.2657 -6.0896
v  0.0704 0.7789 -6.0909
v  1.7589 0.2652 -6.6026
v  0.0703 0.7784 -6.6029
v  -2.4781 2.9640 1.1492
v  -2.4381 2.9898 1.0011
v  -2.4781 2.9900 1.1491
v  -2.4381 2.9638 1.0012
v  -1.5661 2.9624 1.2081
v  -1.5661 2.9364 1.2081
v  -1.6061 2.9626 1.3561
v  -1.6061 2.9366 1.3561
# 16 vertices

vn 0.2908 0.9568 -0.0010
vn 0.0058 0.0186 -0.9998
vn 0.0005 -0.0010 -1.0000
vn -0.2908 -0.9568 0.0010
vn 0.0001 0.0010 1.0000
vn 0.9654 -0.0004 0.2608
vn -0.2308 0.0012 0.9730
vn -0.9654 0.0004 -0.2608
vn -0.0298 -0.9995 -0.0068
vn 0.2308 -0.0011 -0.9730
vn 0.0298 0.9995 0.0068
vn -0.2308 0.0011 0.9730
# 12 vertex normals

vt 5.8984 0.0000 0.0000
vt -0.9805 0.9824 0.0000
vt 5.9004 0.9824 0.0000
vt -0.9824 -0.0137 0.0000
vt -0.9238 0.0000 0.0000
vt 5.9570 0.0000 0.0000
vt -0.9238 0.9824 0.0000
vt 5.9570 0.9824 0.0000
vt 0.0000 0.9824 0.0000
vt 0.9473 1.4688 0.0000
vt 0.0000 1.4688 0.0000
vt 0.9473 0.9824 0.0000
vt 0.2227 -0.0195 0.0000
vt 0.2129 0.9863 0.0000
vt 0.4688 -0.0195 0.0000
vt 1.1094 0.4727 0.0000
vt 0.1309 0.9629 0.0000
vt 1.1094 0.9629 0.0000
vt 0.1309 0.4727 0.0000
vt 0.0000 0.0000 0.0000
vt 0.9473 0.9961 0.0000
vt 0.0000 0.9902 0.0000
vt 0.9473 -0.0098 0.0000
vt 0.2227 -0.0254 0.0000
vt 0.4688 -0.0254 0.0000
vt 0.2129 0.9824 0.0000
vt 0.0000 0.9922 0.0000
vt 0.0000 0.9863 0.0000
# 28 texture coords

o Shape_IndexedFaceSet_011
g Shape_IndexedFaceSet_011
s off
f 1/1/1 2/2/1 3/3/1 
f 4/4/1 2/2/1 1/1/1 
f 1/1/2 5/5/2 4/4/2 
f 1/1/3 6/6/3 5/5/3 
f 7/7/4 5/5/4 6/6/4 
f 7/7/4 6/6/4 8/8/4 
f 2/2/5 8/8/5 3/3/5 
f 2/2/5 7/7/5 8/8/5 
f 9/9/6 10/10/6 11/11/6 
f 9/9/6 12/12/6 10/10/6 
f 12/13/7 13/14/7 10/15/7 
f 14/16/8 15/17/8 13/18/8 
f 14/16/8 16/19/8 15/17/8 
f 11/20/9 13/21/9 15/22/9 
f 11/20/9 10/23/9 13/21/9 
f 16/9/10 9/24/10 11/25/10 
f 16/9/10 11/25/10 15/26/10 
f 12/23/11 9/20/11 16/27/11 
f 12/13/12 14/28/12 13/14/12 
f 12/23/11 16/27/11 14/21/11 
# 0 polygons - 20 triangles

