# 3ds Max Wavefront OBJ Exporter v0.97b - (c)2007 guruware
# File Created: 06.08.2021 17:22:55

#
# object Shape_IndexedFaceSet_017
#

v  -4.6389 1.5510 -5.2211
v  -4.6393 1.0388 -5.4246
v  -4.6392 1.0390 -5.2206
v  -4.6389 1.5508 -5.4251
v  -4.4349 1.5509 -5.2211
v  -4.4352 1.0389 -5.2206
v  -4.4353 1.0387 -5.4246
v  -4.4349 1.5507 -5.4251
v  -5.0493 1.0387 -5.8345
v  -4.2809 1.5504 -5.5791
v  -4.7929 1.5508 -5.5791
v  -4.7929 1.5513 -5.0671
v  -4.2809 1.5509 -5.0671
v  -5.0492 1.0397 -4.8105
v  4.3422 0.9732 -0.8267
v  4.0702 0.9737 -0.5566
v  4.0262 0.9737 -0.6006
v  -4.0253 1.0380 -5.8346
v  -4.0252 1.0390 -4.8106
v  4.2972 0.9732 -0.8717
v  4.0252 0.9097 -0.6016
v  4.2971 0.9092 -0.8716
v  3.9811 0.8457 -0.6465
v  4.2521 0.8452 -0.9165
v  4.2521 0.9092 -0.9166
v  3.9811 0.9097 -0.6466
v  3.9361 0.8457 -0.6915
v  4.2071 0.8452 -0.9615
v  3.9361 0.7817 -0.6914
v  4.2070 0.7812 -0.9615
v  4.3420 0.7812 -0.8265
# 31 vertices

vn -1.0000 0.0007 0.0001
vn 0.0001 0.0010 1.0000
vn -0.0001 -0.0010 -1.0000
vn 1.0000 -0.0007 -0.0001
vn -0.0007 -1.0000 0.0010
vn -0.0002 -0.4463 0.8949
vn 0.8941 -0.4478 0.0003
vn -0.8947 -0.4466 0.0006
vn -0.0004 -0.4481 -0.8940
vn 0.7070 -0.0219 0.7069
vn 0.7046 0.0002 0.7096
vn 0.7059 0.0002 0.7083
vn -0.7070 0.0012 0.7072
# 13 vertex normals

vt 3.4629 0.9668 0.0000
vt 4.4609 0.0000 0.0000
vt 3.4629 0.0000 0.0000
vt 4.4609 0.9668 0.0000
vt 2.4648 0.9668 0.0000
vt 2.4629 0.0000 0.0000
vt 0.4668 0.9668 0.0000
vt 1.4668 0.0000 0.0000
vt 0.4688 0.0000 0.0000
vt 1.4668 0.9668 0.0000
vt 0.0000 0.0000 0.0000
vt 0.7676 0.0000 0.0000
vt 0.7676 0.7676 0.0000
vt 0.0000 0.7676 0.0000
vt 1.4668 1.0820 0.0000
vt 0.9668 0.0000 0.0000
vt 0.0000 0.9668 0.0000
vt 0.6680 0.6680 0.0000
vt 0.9668 0.9668 0.0000
vt 0.6680 0.2676 0.0000
vt 0.2676 0.2676 0.0000
vt 0.2676 0.6680 0.0000
vt 1.4707 1.0820 0.0000
vt -0.5234 1.0820 0.0000
vt -0.0254 0.0000 0.0000
vt 0.9727 0.0000 0.0000
vt -0.9023 -0.1289 0.0000
vt 0.9668 -0.1309 0.0000
vt 0.9668 0.0879 0.0000
vt -0.5293 1.0820 0.0000
vt 1.4648 1.0820 0.0000
vt -0.5273 1.0820 0.0000
vt -0.9023 0.0879 0.0000
vt 0.9668 0.3086 0.0000
vt -0.9023 0.3086 0.0000
vt 0.9668 0.7480 0.0000
vt -0.9023 0.7480 0.0000
vt -0.9023 0.5273 0.0000
vt 0.9668 0.5273 0.0000
vt -0.9023 0.9668 0.0000
vt 0.9668 1.1855 0.0000
vt -0.9023 1.1855 0.0000
vt 0.6563 0.6211 0.0000
vt 1.0000 0.9668 0.0000
vt 0.3105 0.2734 0.0000
vt 0.0000 -0.0723 0.0000
vt 0.6563 0.2734 0.0000
vt 0.3105 -0.0723 0.0000
vt 1.0000 0.6211 0.0000
# 49 texture coords

o Shape_IndexedFaceSet_017
g Shape_IndexedFaceSet_017
s off
f 1/1/1 2/2/1 3/3/1 
f 1/1/1 4/4/1 2/2/1 
f 5/5/2 1/1/2 3/3/2 
f 5/5/2 3/3/2 6/6/2 
f 4/7/3 7/8/3 2/9/3 
f 4/7/3 8/10/3 7/8/3 
f 8/10/4 6/6/4 7/8/4 
f 8/10/4 5/5/4 6/6/4 
f 3/11/5 2/12/5 7/13/5 
f 3/11/5 7/13/5 6/14/5 
f 9/15/6 10/11/6 11/16/6 
f 10/17/5 4/18/5 11/19/5 
f 11/19/5 1/20/5 12/16/5 
f 11/19/5 4/18/5 1/20/5 
f 12/16/5 1/20/5 5/21/5 
f 10/17/5 8/22/5 4/18/5 
f 12/16/5 5/21/5 13/11/5 
f 13/11/5 8/22/5 10/17/5 
f 13/11/5 5/21/5 8/22/5 
f 14/23/7 9/24/7 11/25/7 
f 14/23/7 11/25/7 12/26/7 
f 15/27/5 16/28/5 17/29/5 
f 9/15/6 18/30/6 10/11/6 
f 18/31/8 19/32/8 13/11/8 
f 18/31/8 13/11/8 10/16/8 
f 19/15/9 14/30/9 12/11/9 
f 19/15/9 12/11/9 13/16/9 
f 15/27/5 17/29/5 20/33/5 
f 21/34/10 20/33/10 17/29/10 
f 21/34/11 22/35/11 20/33/11 
f 23/36/12 24/37/12 25/38/12 
f 23/36/12 25/38/12 26/39/12 
f 22/35/5 26/39/5 25/38/5 
f 22/35/5 21/34/5 26/39/5 
f 24/37/5 27/19/5 28/40/5 
f 24/37/5 23/36/5 27/19/5 
f 29/41/12 28/40/12 27/19/12 
f 29/41/12 30/42/12 28/40/12 
f 31/17/13 24/43/13 30/44/13 
f 31/17/13 22/45/13 24/43/13 
f 31/17/13 15/46/13 22/45/13 
f 24/43/13 22/45/13 25/47/13 
f 22/45/13 15/46/13 20/48/13 
f 30/44/13 24/43/13 28/49/13 
# 0 polygons - 44 triangles

