# 3ds Max Wavefront OBJ Exporter v0.97b - (c)2007 guruware
# File Created: 06.08.2021 16:56:35

#
# object Shape_IndexedFaceSet_024
#

v  -2.0110 1.6327 1.2035
v  -1.7199 1.6334 2.0214
v  -1.9619 1.6334 1.9375
v  -1.7200 1.6319 1.5284
v  -2.0341 1.5956 1.0785
v  0.4397 1.0431 2.2987
v  -1.6482 1.3887 1.4227
v  -3.3059 3.0933 1.8421
v  -2.2311 2.9650 1.3301
v  -4.4478 3.1119 2.6103
v  0.6129 2.8205 1.8149
v  0.4409 2.8211 2.2969
v  -0.4870 2.9373 1.8029
v  -0.4191 2.9370 1.6099
v  -3.5109 3.0932 1.6372
v  -2.4871 2.9637 0.8862
v  -3.3059 3.0931 1.6371
v  -1.5471 2.9362 1.0451
v  -0.6111 2.9371 1.5420
v  -1.7191 2.9369 1.5271
v  -0.6800 2.9373 1.7350
v  -2.2295 4.3177 5.9367
v  -4.0036 4.2669 4.9130
v  -3.5596 4.3183 4.6569
v  -3.5109 3.0934 1.8422
v  -4.7018 3.1116 2.1663
v  -0.4559 4.3133 2.8645
v  -0.4557 4.3154 4.9125
v  -3.5598 4.3168 3.1209
v  -2.2300 4.3140 2.3528
v  -4.8903 3.2590 5.4262
v  -2.2299 3.6912 6.4494
v  -2.2298 3.6917 6.9614
v  -0.0262 3.9737 2.5838
v  1.0229 3.8390 4.5838
v  -0.0090 3.8404 5.1759
v  -4.4473 3.2585 5.1701
# 37 vertices

vn -0.0007 -1.0000 0.0010
vn -0.0064 -1.0000 0.0030
vn -0.3670 -0.8711 0.3264
vn -0.4070 -0.4627 0.7875
vn -0.7171 -0.4451 0.5364
vn -0.3109 -0.8415 -0.4418
vn -0.1051 -0.9938 -0.0362
vn -0.1051 -0.9938 -0.0358
vn -0.0007 -0.9856 0.1690
vn -0.1730 -0.9219 0.3467
vn -0.0028 -1.0000 0.0071
vn 0.0844 -0.9230 -0.3755
vn 0.0015 -1.0000 -0.0053
vn 0.0002 -1.0000 0.0013
vn -0.1180 -0.9930 0.0010
vn -0.1009 -0.9930 0.0610
vn 0.0719 -0.9946 -0.0752
vn -0.0007 -0.9997 0.0231
vn -0.0188 -0.9998 0.0010
vn -0.0121 -0.9999 0.0075
vn 0.1434 -0.9239 0.3547
vn -0.0014 -1.0000 0.0010
vn 0.1600 -0.9871 0.0010
vn -0.0306 -0.9982 -0.0512
vn 0.0952 -0.9814 0.1669
# 25 vertex normals

vt 0.6074 1.8379 0.0000
vt 0.1348 0.5117 0.0000
vt 0.5273 0.6484 0.0000
vt 0.1348 1.3105 0.0000
vt 0.6445 2.0410 0.0000
vt -3.3711 0.0605 0.0000
vt 0.0176 1.4824 0.0000
vt 2.7129 0.8008 0.0000
vt 0.9668 1.6309 0.0000
vt 4.5684 -0.4473 0.0000
vt 0.3398 5.8320 0.0000
vt 0.6191 5.0488 0.0000
vt 2.1270 5.8516 0.0000
vt 2.0156 6.1641 0.0000
vt 7.0391 6.1211 0.0000
vt 5.3750 7.3418 0.0000
vt 6.7051 6.1211 0.0000
vt 3.8477 7.0840 0.0000
vt 2.3281 6.2773 0.0000
vt 4.1270 6.3008 0.0000
vt 2.4395 5.9629 0.0000
vt 4.9590 6.6211 0.0000
vt 6.7051 5.7891 0.0000
vt 4.9590 -0.8633 0.0000
vt 7.8398 0.8008 0.0000
vt 7.1191 1.2148 0.0000
vt 8.5605 4.5410 0.0000
vt 7.0391 5.7891 0.0000
vt 8.9727 5.2637 0.0000
vt 2.0781 4.1250 0.0000
vt 2.0781 0.8008 0.0000
vt 7.1191 3.7090 0.0000
vt 4.9590 4.9570 0.0000
vt 9.2813 0.0000 0.0000
vt 4.9590 -1.6953 0.0000
vt 4.9590 -2.5254 0.0000
vt 1.3789 4.5820 0.0000
vt -0.3242 1.3320 0.0000
vt 1.3516 0.3730 0.0000
vt 8.5605 0.3848 0.0000
# 40 texture coords

o Shape_IndexedFaceSet_024
g Shape_IndexedFaceSet_024
s off
f 1/1/1 2/2/1 3/3/1 
f 2/2/2 1/1/2 4/4/2 
f 1/1/3 5/5/3 4/4/3 
f 6/6/4 4/4/4 7/7/4 
f 4/4/5 5/5/5 7/7/5 
f 8/8/6 9/9/6 10/10/6 
f 11/11/7 12/12/7 13/13/7 
f 11/11/8 13/13/8 14/14/8 
f 15/15/9 16/16/9 17/17/9 
f 14/14/10 18/18/10 11/11/10 
f 19/19/11 18/18/11 14/14/11 
f 20/20/12 13/13/12 12/12/12 
f 21/21/13 13/13/13 20/20/13 
f 21/21/14 20/20/14 18/18/14 
f 21/21/14 18/18/14 19/19/14 
f 17/17/15 9/22/15 8/23/15 
f 16/16/16 9/22/16 17/17/16 
f 22/24/17 23/25/17 24/26/17 
f 8/23/18 10/27/18 25/28/18 
f 10/27/19 15/15/19 25/28/19 
f 26/29/20 15/15/20 10/27/20 
f 26/29/21 16/16/21 15/15/21 
f 22/24/1 27/30/1 28/31/1 
f 22/24/22 29/32/22 30/33/22 
f 22/24/1 30/33/1 27/30/1 
f 22/24/22 24/26/22 29/32/22 
f 31/34/23 32/35/23 33/36/23 
f 34/37/24 35/38/24 36/39/24 
f 37/40/25 32/35/25 31/34/25 
# 0 polygons - 29 triangles

