# 3ds Max Wavefront OBJ Exporter v0.97b - (c)2007 guruware
# File Created: 06.08.2021 17:01:14

#
# object Shape_IndexedFaceSet_016
#

v  -0.1844 1.5523 -0.8867
v  -0.3464 1.4248 -0.5665
v  -2.2571 1.7597 0.0174
v  -0.1845 1.4243 -0.8865
v  -1.2365 1.4248 -1.1404
v  -0.3724 1.4248 -0.5925
v  -1.0485 1.4244 -1.4354
v  -1.0484 1.5524 -1.4356
v  -0.1849 0.7843 -0.8859
v  -0.3729 0.7848 -0.5919
v  2.3733 0.0132 -2.2504
v  2.3739 0.7812 -2.2512
v  -1.1100 2.0662 -0.6341
v  -0.3469 0.7848 -0.5659
v  -2.7448 0.6751 0.0525
v  -0.8533 0.7817 -3.9068
v  -1.2369 0.7848 -1.1398
v  1.6056 0.0160 0.0527
v  -1.2393 1.3868 0.8196
v  1.8548 0.0174 1.5846
v  -1.0490 0.7844 -1.4348
v  -0.4191 2.9370 1.6099
v  -0.4870 2.9373 1.8029
v  -0.6800 2.9373 1.7350
v  -0.6111 2.9371 1.5420
# 25 vertices

vn -0.2913 -0.8288 -0.4777
vn 0.0007 1.0000 -0.0010
vn -0.5362 0.0012 0.8441
vn 0.8426 -0.0000 0.5386
vn -0.5266 -0.0005 -0.8501
vn -0.4899 -0.6958 -0.5252
vn -0.4061 -0.3085 -0.8602
vn 0.4771 -0.7228 0.5000
vn -0.3146 -0.8099 0.4951
vn -0.2924 -0.0008 -0.9563
vn 0.7120 -0.2996 0.6350
vn 0.6220 -0.7322 0.2774
vn 0.4708 0.0006 0.8823
vn -0.5355 0.0012 0.8445
vn -0.4068 -0.8979 0.1684
vn -0.3337 -0.9362 -0.1101
vn -0.4102 -0.9066 0.0990
vn -0.4179 -0.9059 0.0688
vn -0.9969 0.0006 -0.0789
vn -0.8434 0.0000 -0.5373
vn -0.0007 -1.0000 0.0010
# 21 vertex normals

vt -0.4121 -0.5000 0.0000
vt -0.8594 0.0000 0.0000
vt -4.5664 0.8906 0.0000
vt 0.0000 0.0000 0.0000
vt 0.9668 0.3086 0.0000
vt 0.0000 0.3086 0.0000
vt 0.9668 0.0000 0.0000
vt 0.9668 -0.1563 0.0000
vt 0.0000 -0.1563 0.0000
vt 0.6270 0.9668 0.0000
vt 0.6270 0.2188 0.0000
vt 0.9668 0.2188 0.0000
vt 0.9668 0.9668 0.0000
vt 5.9570 0.0000 0.0000
vt 5.3535 -1.4023 0.0000
vt 2.4688 0.2266 0.0000
vt 1.9277 0.9121 0.0000
vt 1.4668 1.0488 0.0000
vt 1.8867 1.3164 0.0000
vt -0.3574 1.1094 0.0000
vt 2.7129 0.5918 0.0000
vt 1.5898 2.5859 0.0000
vt -4.6875 0.9668 0.0000
vt 0.9668 -0.5293 0.0000
vt 0.9668 0.7168 0.0000
vt 0.0000 0.7168 0.0000
vt 0.0000 1.1016 0.0000
vt -1.1309 -2.8633 0.0000
vt 0.0000 -1.0293 0.0000
vt 2.3359 1.1367 0.0000
vt -1.5781 -1.6289 0.0000
vt -1.3789 1.7402 0.0000
vt 4.9590 0.0000 0.0000
vt 0.3418 1.3965 0.0000
vt -0.0996 0.0000 0.0000
vt 0.6270 0.7168 0.0000
vt 0.6270 0.0000 0.0000
vt 0.0000 0.9668 0.0000
vt 0.9648 0.0000 0.0000
vt 0.9648 0.9668 0.0000
# 40 texture coords

o Shape_IndexedFaceSet_016
g Shape_IndexedFaceSet_016
s off
f 1/1/1 2/2/1 3/3/1 
f 4/4/2 5/5/2 6/6/2 
f 4/4/2 7/7/2 5/5/2 
f 8/8/3 7/7/3 4/4/3 
f 8/8/3 4/4/3 1/9/3 
f 9/10/4 4/11/4 6/12/4 
f 9/10/4 6/12/4 10/13/4 
f 11/14/5 2/2/5 12/15/5 
f 12/15/6 2/2/6 1/1/6 
f 3/16/7 13/17/7 1/18/7 
f 8/19/8 13/17/8 3/16/8 
f 1/18/9 13/17/9 8/19/9 
f 11/14/5 14/20/5 2/2/5 
f 14/20/10 3/3/10 2/2/10 
f 15/21/11 8/19/11 3/16/11 
f 15/21/12 16/22/12 8/19/12 
f 12/23/13 1/24/13 9/13/13 
f 6/4/14 5/7/14 17/25/14 
f 6/4/14 17/25/14 10/26/14 
f 18/27/15 3/28/15 14/29/15 
f 18/27/16 14/29/16 11/30/16 
f 19/31/17 3/28/17 18/27/17 
f 18/27/18 20/32/18 19/31/18 
f 16/33/19 21/34/19 8/35/19 
f 7/7/20 21/25/20 17/36/20 
f 7/7/20 17/36/20 5/37/20 
f 22/38/21 23/4/21 24/39/21 
f 22/38/21 24/39/21 25/40/21 
# 0 polygons - 28 triangles

