# 3ds Max Wavefront OBJ Exporter v0.97b - (c)2007 guruware
# File Created: 06.08.2021 16:43:32

#
# object Shape_IndexedFaceSet_022
#

v  3.6542 1.0376 -0.9716
v  3.9361 0.7817 -0.6914
v  4.0702 0.9737 -0.5566
v  3.6540 0.7816 -0.9714
v  4.0703 1.0377 -0.5567
v  4.0701 0.7817 -0.5564
v  4.3422 1.0372 -0.8267
v  4.3422 0.9732 -0.8267
v  8.0055 0.7746 -4.8119
v  4.9330 0.0088 -4.8107
v  8.0049 0.0066 -4.8111
v  4.9335 0.7768 -4.8115
v  0.0701 0.7765 -8.3949
v  0.0696 0.0091 -7.8821
v  0.0702 0.7771 -7.8829
v  0.0703 0.7784 -6.6029
v  0.0703 0.7274 -6.6028
v  0.0698 0.0104 -6.6021
v  -2.9359 2.5762 -2.9433
v  -2.3598 2.5768 -1.9464
v  -1.9754 3.0885 -1.9470
v  -3.5121 2.0656 -1.9458
v  -2.7432 3.0904 -0.6179
v  -2.9356 2.5782 -0.9484
v  -2.7436 3.0877 -3.2769
v  -4.0876 2.5790 -0.9482
v  -4.2792 3.0915 -0.6177
v  -4.0879 2.5770 -2.9432
v  -4.6637 2.5784 -1.9461
v  -5.0474 3.0906 -1.9466
v  -4.2795 3.0888 -3.2767
v  8.0061 1.0343 -1.2282
v  8.0059 0.7783 -1.2279
v  8.0056 1.0306 -4.8122
v  4.3420 0.7812 -0.8265
v  -2.0110 1.6327 1.2035
v  -2.2311 2.9141 1.4582
v  -2.2311 2.9650 1.3301
v  -2.2310 2.9144 1.7142
v  -1.9619 1.6334 1.9375
v  -2.4874 2.5127 0.8866
v  -2.2315 2.3690 1.3307
v  -2.4871 2.9637 0.8862
v  -4.4482 2.5159 2.6109
v  -4.7021 2.6596 2.1668
v  -2.2310 2.9655 1.8421
v  -2.2300 3.5462 6.4495
v  -2.2298 3.6917 6.9614
v  -2.2299 3.6912 6.4494
v  -2.2299 3.5467 6.9615
v  -4.7018 3.1116 2.1663
v  -4.4478 3.1119 2.6103
v  0.6740 2.7287 3.0400
v  0.7858 1.0436 2.9847
v  0.7870 2.7816 2.9829
v  -4.4474 3.1135 5.1702
v  -4.8914 3.1150 5.4263
v  -4.4473 3.2585 5.1701
v  -4.8903 3.2590 5.4262
v  0.4220 2.7260 3.1670
v  0.3080 2.7752 3.2250
v  0.6707 1.0434 2.7557
v  0.1890 2.7920 2.9980
v  0.3040 2.7409 2.9400
v  0.5549 2.7426 2.8130
v  0.6720 2.7944 2.7539
v  -1.7190 2.8822 1.8962
v  -1.7199 1.6334 2.0214
v  -1.7191 2.8840 1.6502
v  -1.7190 2.9324 2.0191
v  -1.7200 1.6319 1.5284
v  -1.7191 2.9369 1.5271
v  0.4408 2.5651 2.2972
v  0.4409 2.8211 2.2969
v  0.6129 2.8205 1.8149
v  -1.7192 2.6809 1.5274
v  -1.5471 2.9362 1.0451
v  0.4397 1.0431 2.2987
v  -0.4560 3.8324 4.9130
v  -0.8549 3.8579 5.1430
v  -0.5010 3.8575 4.9390
v  -2.2299 3.6907 5.9374
v  -2.2295 4.3187 5.9367
v  -0.8548 4.1139 5.1428
v  -0.7667 4.2168 5.0917
v  -0.4557 4.3154 4.9125
v  -4.0044 3.2579 4.9140
v  -0.4559 4.3133 2.8645
v  -0.5008 4.1135 4.9387
v  -0.5887 4.2166 4.9896
v  -0.4562 3.9743 2.8649
v  -4.0047 3.1118 2.8662
v  -2.2302 4.1175 1.8410
v  -4.0039 4.2648 2.8650
v  -0.0090 3.8404 5.1759
v  0.5124 3.0637 4.8777
v  0.3345 3.0639 4.9797
v  -0.0262 3.9737 2.5838
v  -0.0270 2.8207 2.5850
v  1.0221 2.6790 4.5850
v  1.0229 3.8390 4.5838
v  0.2454 2.9610 5.0308
v  -2.2307 2.5382 6.4505
v  0.2452 2.7050 5.0311
v  -4.4481 2.1055 5.1713
v  -4.4486 1.9589 2.6114
v  1.7090 1.0448 4.8126
v  1.7101 2.6778 4.8109
v  -4.0036 4.2669 4.9130
v  -2.2301 4.1180 2.3530
v  -2.2300 4.3140 2.3528
v  -3.5598 4.3168 3.1209
v  -3.5598 4.3158 3.1209
v  -2.2306 2.5387 6.9625
v  0.6014 2.9606 4.8268
v  0.6012 2.7046 4.8270
v  8.0071 1.0421 6.4507
v  3.9911 1.0442 5.8103
v  3.9907 0.5322 5.8108
v  -1.2393 1.3868 0.8196
v  1.8548 0.0174 1.5846
v  1.8556 1.0414 1.5836
v  3.2979 1.0433 4.4394
v  3.2972 0.0193 4.4404
v  3.4722 0.0196 4.7824
v  4.2841 0.0191 3.9473
v  4.9716 0.5321 5.3197
v  4.4562 0.0194 4.2903
v  4.2847 0.7951 3.9465
v  2.6296 0.0153 0.0525
v  3.6535 0.0136 -0.9706
v  3.3979 0.0169 2.1004
v  2.7107 0.0160 0.7265
v  3.3984 0.7849 2.0996
v  2.7113 0.7840 0.7257
v  2.3740 0.0181 2.6125
v  2.3747 1.0421 2.6115
v  2.6303 0.9883 0.0515
v  -0.5961 0.0119 -5.5780
v  0.0699 0.0109 -6.0901
v  1.7588 0.0097 -6.0913
v  0.0704 0.7279 -6.0908
v  -0.9535 0.7801 -5.5788
v  0.0704 0.7789 -6.0909
v  -0.9541 0.0121 -5.5780
v  -0.5960 0.0124 -5.0660
v  1.2207 0.0090 -7.1142
v  1.7588 0.0092 -6.6023
v  3.9091 0.0105 -3.7866
v  1.7589 0.0102 -5.5793
v  0.5817 0.0095 -7.1142
v  3.9100 0.7811 -1.2274
v  3.9096 0.7785 -3.7874
v  2.6293 0.0127 -2.5065
v  3.9094 0.0131 -1.2266
v  2.3733 0.0127 -2.7624
v  -0.4419 0.0128 -4.5541
v  1.7589 0.2652 -6.6026
v  1.7587 0.0087 -7.1143
v  1.7590 0.2657 -6.0896
v  -0.9540 0.0126 -5.0660
v  2.6298 0.7807 -2.5072
v  -0.4414 0.7808 -4.5548
v  2.3738 0.7806 -2.7632
v  -0.9535 0.7806 -5.0668
v  2.3733 0.0132 -2.2504
v  1.6056 0.0160 0.0527
v  3.5182 0.0191 4.3304
v  4.0901 0.0184 4.0443
v  2.9358 0.9412 4.0485
v  1.7815 0.9397 1.7637
v  3.0799 1.0431 4.1194
v  1.8096 1.0415 1.6066
v  2.0497 0.7370 4.2098
v  2.3917 0.7365 4.0368
v  2.7067 0.8383 4.0217
v  1.6675 0.8369 1.9648
v  1.4684 0.7353 2.2089
v  1.1255 0.7357 2.3820
v  0.8115 0.8380 2.3979
v  0.5826 0.9411 2.3698
v  1.8498 0.8393 4.4548
v  1.7369 0.9426 4.6547
# 183 vertices

vn -0.7065 -0.0032 0.7077
vn -0.7045 0.0012 0.7097
vn -0.7062 0.0012 0.7080
vn -0.7096 0.0012 0.7046
vn 0.7046 0.0002 0.7096
vn 0.0001 0.0010 1.0000
vn -1.0000 0.0007 0.0001
vn -0.7258 0.5456 0.4191
vn -0.3948 0.8902 0.2276
vn -0.7258 0.5447 -0.4201
vn -0.7265 0.5439 -0.4200
vn -0.3948 0.8897 -0.2291
vn -0.7257 0.5459 0.4188
vn 0.0003 0.5421 -0.8403
vn 0.0006 0.8893 -0.4574
vn 0.0007 0.8900 0.4559
vn 0.3960 0.8892 -0.2292
vn 0.3961 0.8896 0.2275
vn 0.7269 0.5430 -0.4205
vn 0.7266 0.5438 -0.4198
vn 0.7267 0.5446 0.4187
vn 0.7264 0.5449 0.4188
vn 0.0005 0.5461 0.8377
vn 1.0000 -0.0007 -0.0001
vn 0.1089 0.0009 0.9940
vn -0.9856 -0.1569 -0.0625
vn -0.9856 -0.1693 0.0003
vn -0.9788 -0.1942 0.0657
vn -0.8663 0.0011 0.4996
vn 0.1830 0.9612 0.2064
vn -0.9783 -0.1921 0.0772
vn 0.8679 -0.0011 -0.4967
vn 0.1826 0.9614 0.2059
vn 0.4505 0.0006 0.8928
vn -0.1910 0.9816 -0.0010
vn -0.0783 0.9868 -0.1418
vn 0.5005 -0.0029 0.8658
vn 0.4996 0.0005 0.8663
vn 0.4502 0.0006 0.8929
vn 0.4539 0.0016 0.8910
vn -0.4504 -0.0004 -0.8929
vn -0.4504 -0.0006 -0.8928
vn -0.4516 -0.0007 -0.8922
vn -0.9419 0.0003 -0.3360
vn -0.8551 -0.2951 0.4264
vn 0.9419 -0.0003 0.3360
vn -0.1072 0.8940 0.4351
vn -0.3357 0.0012 0.9420
vn -0.8538 -0.2947 0.4291
vn -0.8924 0.0011 0.4512
vn -0.4994 0.0018 -0.8664
vn -0.4997 -0.0053 -0.8662
vn -0.5002 -0.0005 -0.8659
vn -0.5003 -0.0019 -0.8658
vn -0.5000 0.0040 -0.8660
vn 0.4998 -0.0012 -0.8661
vn -0.5004 -0.0005 -0.8658
vn -0.3266 0.0019 0.9452
vn -0.5013 -0.0002 -0.8653
vn -0.4973 -0.0074 -0.8676
vn 0.5000 0.0005 0.8660
vn -0.3278 0.0014 0.9447
vn -0.4973 -0.0007 -0.8676
vn -0.3266 0.0012 0.9452
vn -0.3191 0.0048 0.9477
vn -0.3171 0.0012 0.9484
vn -0.8861 0.0011 0.4636
vn -0.8855 0.0011 0.4646
vn -0.8856 0.0015 0.4644
vn -0.8853 0.0019 0.4650
vn -0.4974 -0.0005 -0.8675
vn -0.4977 0.0072 -0.8673
vn -0.4973 -0.0005 -0.8676
vn 0.4999 -0.0012 -0.8661
vn 0.5005 0.0005 0.8658
vn 0.5004 -0.0047 -0.8658
vn 0.5001 0.0000 0.8660
vn 0.5002 0.0005 0.8659
vn 0.5013 0.0005 0.8653
vn -0.8926 0.0011 0.4508
vn -0.2772 0.0012 0.9608
vn 0.5003 0.0011 0.8658
vn -0.4792 -0.0006 -0.8777
vn -0.4994 -0.0025 -0.8664
vn -0.4972 -0.0006 -0.8676
vn -0.4985 -0.0005 -0.8669
vn -0.5000 -0.0037 -0.8660
vn -0.4971 0.0256 -0.8673
vn -0.4977 -0.0005 -0.8673
vn -0.1575 0.0011 0.9875
vn -0.2395 0.0012 0.9709
vn -0.8902 0.0011 0.4556
vn -0.8927 -0.0010 0.4506
vn 0.8938 0.0015 -0.4484
vn 0.8942 -0.0011 -0.4476
vn 0.7069 0.0002 0.7074
vn 0.8944 -0.0011 -0.4473
vn 0.9928 -0.0008 -0.1194
vn -0.0007 -1.0000 0.0010
vn -0.4473 -0.0006 -0.8944
vn 0.7072 0.0002 0.7070
vn -0.7070 0.0012 0.7072
vn -0.5369 0.0012 0.8436
vn 0.1818 -0.9135 0.3639
vn 0.0004 -1.0000 0.0011
vn 0.0005 -1.0000 0.0033
vn 0.1819 -0.9136 0.3637
vn 0.0034 -1.0000 -0.0011
vn 0.6478 -0.6882 -0.3268
vn 0.6500 -0.6854 -0.3282
vn 0.2802 -0.7825 0.5561
vn 0.2813 -0.7808 0.5578
vn 0.4209 -0.8820 -0.2121
vn 0.4207 -0.8821 -0.2120
vn -0.2819 -0.7814 -0.5568
vn -0.2943 -0.7732 -0.5618
vn -0.2826 -0.7807 -0.5573
vn -0.2830 -0.7801 -0.5579
vn -0.2819 -0.7821 -0.5557
vn -0.2823 -0.7813 -0.5567
vn 0.2835 -0.7779 0.5608
vn 0.2977 -0.9429 -0.1498
vn 0.2974 -0.9430 -0.1496
vn 0.2794 -0.7823 0.5567
vn -0.2977 -0.9426 0.1511
vn 0.2873 -0.7775 0.5595
vn -0.2991 -0.9421 0.1516
vn 0.2648 -0.7875 0.5564
vn -0.4244 -0.8796 0.2148
vn -0.4229 -0.8805 0.2142
vn -0.6498 -0.6854 0.3287
vn -0.6503 -0.6847 0.3290
vn -0.6557 -0.6792 0.3298
vn -0.6516 -0.6830 0.3299
# 134 vertex normals

vt 0.9668 0.0000 0.0000
vt -0.5820 0.9668 0.0000
vt -1.3262 0.2188 0.0000
vt 0.9668 0.9668 0.0000
vt -1.3262 0.0000 0.0000
vt -1.3242 0.9668 0.0000
vt 0.9668 0.2188 0.0000
vt -0.5293 0.0000 0.0000
vt -0.5293 0.2188 0.0000
vt -3.0234 0.0000 0.0000
vt -3.0234 0.9668 0.0000
vt 1.6328 0.0000 0.0000
vt -0.6953 0.0000 0.0000
vt -0.6953 0.0352 0.0000
vt -0.6953 0.9668 0.0000
vt 0.0313 0.4414 0.0000
vt 0.5918 -0.5293 0.0000
vt 0.9668 -0.5293 0.0000
vt -0.5273 -0.5313 0.0000
vt 0.2188 -1.8262 0.0000
vt 0.0313 -1.5020 0.0000
vt 0.2188 0.7656 0.0000
vt -1.0898 -1.5020 0.0000
vt -1.2773 -1.8262 0.0000
vt -1.0898 0.4414 0.0000
vt -1.6504 -0.5313 0.0000
vt -2.0254 -0.5313 0.0000
vt -1.2773 0.7656 0.0000
vt -13.0039 0.9668 0.0000
vt -13.0039 0.0000 0.0000
vt 15.9375 0.0000 0.0000
vt 15.9375 0.2188 0.0000
vt 0.0000 0.0000 0.0000
vt 0.0000 0.9668 0.0000
vt 15.9375 0.9668 0.0000
vt 0.3848 2.0781 0.0000
vt 0.1758 -0.1133 0.0000
vt -0.4453 0.0000 0.0000
vt -0.8066 2.0918 0.0000
vt 0.8984 0.5391 0.0000
vt 0.1758 0.8398 0.0000
vt 0.8965 -0.1836 0.0000
vt 4.9668 0.9668 0.0000
vt -0.0156 -0.0703 0.0000
vt 4.9785 -0.0703 0.0000
vt -0.6523 -0.1133 0.0000
vt 0.9668 0.5313 0.0000
vt 0.0664 0.0000 0.0000
vt 0.0664 0.2500 0.0000
vt 0.9668 0.7168 0.0000
vt -1.0273 0.0000 0.0000
vt 0.0000 0.3438 0.0000
vt 0.2305 -1.3203 0.0000
vt 0.0000 1.9629 0.0000
vt 0.0000 -1.4238 0.0000
vt 0.6230 -6.0547 0.0000
vt 0.9668 -1.0293 0.0000
vt -0.2656 -5.9395 0.0000
vt 0.1328 -1.0293 0.0000
vt 0.0000 0.6836 0.0000
vt 0.9668 0.6855 0.0000
vt 0.7539 -1.3145 0.0000
vt 1.0137 -1.4102 0.0000
vt 1.0547 3.3633 0.0000
vt 0.2324 0.0645 0.0000
vt 0.7598 0.0547 0.0000
vt 1.0215 -0.0488 0.0000
vt 0.7070 -0.6719 0.0000
vt 0.8652 0.9668 0.0000
vt 0.3867 -0.6758 0.0000
vt 0.8652 -0.7363 0.0000
vt 0.2266 -0.7441 0.0000
vt 0.0000 0.5918 0.0000
vt 1.2168 0.0000 0.0000
vt 8.1113 -3.1680 0.0000
vt 8.2129 -1.4805 0.0000
vt 7.9355 -1.4648 0.0000
vt 0.7168 0.0000 0.0000
vt 0.7168 0.5918 0.0000
vt 7.4063 -1.6855 0.0000
vt 7.1406 -1.4355 0.0000
vt 5.1172 -1.3223 0.0000
vt 5.0488 -1.5723 0.0000
vt 7.4063 -3.1680 0.0000
vt 5.0488 -1.3223 0.0000
vt 5.0488 -2.5938 0.0000
vt 7.4063 -1.4355 0.0000
vt 7.8789 -3.1680 0.0000
vt 7.8789 -1.4609 0.0000
vt 10.4609 -0.4531 0.0000
vt 11.0859 -0.4277 0.0000
vt 10.5254 -0.4277 0.0000
vt 13.4688 -0.5938 0.0000
vt 13.4688 0.0000 0.0000
vt 11.0859 -0.1797 0.0000
vt 10.9375 -0.0781 0.0000
vt 10.4609 0.0000 0.0000
vt 16.4492 -1.0156 0.0000
vt 5.1973 -2.5938 0.0000
vt 5.1973 -1.3281 0.0000
vt 4.4336 -1.2969 0.0000
vt 7.4414 0.0000 0.0000
vt 10.5254 -0.1797 0.0000
vt 10.6563 -0.0781 0.0000
vt 7.4414 -0.3125 0.0000
vt 1.4531 -1.1563 0.0000
vt 4.4336 -0.1719 0.0000
vt 1.4531 0.0000 0.0000
vt 4.8262 -2.5938 0.0000
vt -1.7109 1.6426 0.0000
vt -2.3652 0.7285 0.0000
vt -2.1309 0.7383 0.0000
vt 7.4121 -0.3125 0.0000
vt 7.4121 -1.4355 0.0000
vt 9.5566 -1.5762 0.0000
vt 9.5566 -0.4453 0.0000
vt -2.0098 0.6250 0.0000
vt 1.2773 0.2617 0.0000
vt 1.2266 1.5820 0.0000
vt -3.0234 0.2617 0.0000
vt -1.9980 0.3320 0.0000
vt 13.4629 -1.7168 0.0000
vt 16.4473 -2.1387 0.0000
vt 16.4473 -1.1563 0.0000
vt 13.4629 -0.7344 0.0000
vt 19.4199 -1.1543 0.0000
vt 16.4473 -1.0156 0.0000
vt 19.4199 -2.2793 0.0000
vt 1.7012 -1.1543 0.0000
vt 4.1992 -1.7363 0.0000
vt 4.1992 -1.2969 0.0000
vt 13.4590 -0.7344 0.0000
vt 16.4453 -1.1563 0.0000
vt 13.4590 -0.5938 0.0000
vt 16.4453 -1.0156 0.0000
vt 1.4551 -1.7363 0.0000
vt 4.6758 -2.5938 0.0000
vt 4.4395 -1.8770 0.0000
vt 1.4551 -2.2793 0.0000
vt 4.4395 -1.2969 0.0000
vt 1.7012 -1.5957 0.0000
vt 9.6113 -3.1680 0.0000
vt 9.6113 -1.5762 0.0000
vt 8.1113 -1.4746 0.0000
vt 16.4492 0.0000 0.0000
vt 19.4180 -1.1563 0.0000
vt 19.4180 0.0000 0.0000
vt 4.4258 -0.1719 0.0000
vt 4.4258 0.0000 0.0000
vt 1.4492 0.0000 0.0000
vt 13.4590 -1.7168 0.0000
vt -2.4785 0.6074 0.0000
vt -2.4668 0.3125 0.0000
vt -3.0742 1.5898 0.0000
vt -4.3164 0.0000 0.0000
vt 0.9668 0.6348 0.0000
vt 3.0762 -0.3672 0.0000
vt 0.9668 1.2969 0.0000
vt 0.3887 1.2969 0.0000
vt -1.0273 0.6348 0.0000
vt 0.3867 0.9668 0.0000
vt 2.3848 0.3027 0.0000
vt 0.3867 -0.0410 0.0000
vt 1.3691 0.9668 0.0000
vt -1.0273 0.9668 0.0000
vt -1.0254 -0.3359 0.0000
vt 0.9668 1.9629 0.0000
vt -1.2637 1.9629 0.0000
vt -1.2637 0.9668 0.0000
vt -0.1543 0.9668 0.0000
vt -0.1543 0.0000 0.0000
vt 0.3008 0.9668 0.0000
vt 0.3008 -0.2969 0.0000
vt 1.3652 0.2188 0.0000
vt 0.7168 0.7168 0.0000
vt -0.9277 0.7188 0.0000
vt -1.0293 -0.3906 0.0000
vt 1.3691 -0.2969 0.0000
vt 1.1328 0.0352 0.0000
vt -0.3535 0.0000 0.0000
vt 1.1328 0.0000 0.0000
vt 1.1328 0.9668 0.0000
vt -0.3535 0.9668 0.0000
vt 1.3652 -0.2813 0.0000
vt 1.7148 0.2188 0.0000
vt 0.7168 1.2148 0.0000
vt -0.4043 1.7129 0.0000
vt -0.9277 1.2148 0.0000
vt -4.0215 -0.5313 0.0000
vt -3.0234 -1.5293 0.0000
vt -0.9277 0.2188 0.0000
vt 0.2188 1.7129 0.0000
vt 2.9629 0.3008 0.0000
vt -1.0273 0.3008 0.0000
vt -1.7754 -2.7754 0.0000
vt -3.0234 -4.0234 0.0000
vt -1.5273 -2.5273 0.0000
vt 1.2168 -0.7793 0.0000
vt 0.0000 -0.0254 0.0000
vt -0.0293 0.9707 0.0000
vt -2.0234 0.9746 0.0000
vt 3.9609 0.9609 0.0000
vt 1.9648 0.9668 0.0000
vt 1.9668 0.0000 0.0000
vt 2.9629 0.9668 0.0000
vt 1.7148 -0.2813 0.0000
vt 0.0820 0.9668 0.0000
vt 0.0820 0.3008 0.0000
vt 1.9648 0.3008 0.0000
vt -4.7559 0.0000 0.0000
vt -4.2910 0.9668 0.0000
vt -4.7559 0.9668 0.0000
vt 0.0391 0.0000 0.0000
vt 0.0391 0.9668 0.0000
vt -4.2910 0.0000 0.0000
vt 0.6348 0.0000 0.0000
vt 0.6348 0.9668 0.0000
vt -1.5273 -3.0254 0.0000
vt -2.7734 -4.2734 0.0000
vt -0.7773 -5.2715 0.0000
vt -1.7754 -5.2715 0.0000
vt -1.0195 -6.7637 0.0000
vt -1.8555 -5.9277 0.0000
vt -1.5273 -7.7656 0.0000
vt -2.5254 -7.2676 0.0000
vt -4.0859 -10.3906 0.0000
vt -2.6230 -9.9355 0.0000
vt -3.5957 -9.4473 0.0000
vt -2.6406 -9.4395 0.0000
vt -3.1992 -9.1621 0.0000
vt -3.1016 -10.8848 0.0000
vt -3.3887 -9.0664 0.0000
vt -2.4258 -9.5469 0.0000
vt -0.7773 1.3711 0.0000
vt 0.8828 1.3711 0.0000
vt -0.8613 1.4629 0.0000
vt 0.9668 1.4648 0.0000
vt -0.8613 0.0000 0.0000
vt -0.6113 0.5293 0.0000
vt -0.6113 0.9043 0.0000
vt -0.6953 1.1836 0.0000
vt 0.8008 1.1836 0.0000
vt 0.7168 0.9043 0.0000
vt 0.7168 0.5293 0.0000
vt 0.8008 0.2500 0.0000
vt 0.8828 0.0625 0.0000
vt -0.6953 0.2500 0.0000
vt -0.7773 0.0625 0.0000
vt 0.4668 0.0000 0.0000
# 249 texture coords

o Shape_IndexedFaceSet_022
g Shape_IndexedFaceSet_022
s off
f 1/1/1 2/2/1 3/3/1 
f 4/4/2 2/2/2 1/1/2 
f 1/1/3 3/3/3 5/5/3 
f 3/3/4 2/2/4 6/6/4 
f 3/7/5 7/8/5 5/1/5 
f 3/7/5 8/9/5 7/8/5 
f 9/10/6 10/4/6 11/11/6 
f 10/4/6 9/10/6 12/1/6 
f 13/12/7 14/4/7 15/1/7 
f 15/1/7 14/4/7 16/13/7 
f 17/14/7 14/4/7 18/15/7 
f 14/4/7 17/14/7 16/13/7 
f 19/16/8 20/17/8 21/18/8 
f 22/19/9 20/17/9 19/16/9 
f 20/17/10 23/20/10 21/18/10 
f 20/17/11 24/21/11 23/20/11 
f 22/19/12 24/21/12 20/17/12 
f 19/16/13 21/18/13 25/22/13 
f 23/20/14 26/23/14 27/24/14 
f 24/21/14 26/23/14 23/20/14 
f 22/19/15 26/23/15 24/21/15 
f 22/19/16 19/16/16 28/25/16 
f 22/19/17 29/26/17 26/23/17 
f 22/19/18 28/25/18 29/26/18 
f 26/23/19 30/27/19 27/24/19 
f 26/23/20 29/26/20 30/27/20 
f 29/26/21 31/28/21 30/27/21 
f 29/26/22 28/25/22 31/28/22 
f 28/25/23 25/22/23 31/28/23 
f 28/25/23 19/16/23 25/22/23 
f 9/29/24 32/1/24 33/4/24 
f 32/1/24 9/29/24 34/30/24 
f 7/31/25 8/32/25 32/33/25 
f 32/33/25 8/32/25 33/34/25 
f 33/34/25 8/32/25 35/35/25 
f 36/36/26 37/33/26 38/37/26 
f 36/36/27 39/38/27 37/33/27 
f 36/36/28 40/39/28 39/38/28 
f 38/37/29 41/40/29 42/41/29 
f 43/42/29 41/40/29 38/37/29 
f 44/43/30 41/44/30 45/45/30 
f 39/38/31 40/39/31 46/46/31 
f 47/47/7 48/48/7 49/1/7 
f 47/47/7 50/49/7 48/48/7 
f 44/50/32 51/51/32 52/1/32 
f 44/50/32 45/52/32 51/51/32 
f 44/43/33 42/34/33 41/44/33 
f 53/53/34 54/54/34 55/55/34 
f 47/56/35 56/57/35 50/58/35 
f 50/58/36 56/57/36 57/59/36 
f 57/4/37 58/60/37 59/61/37 
f 56/34/38 58/60/38 57/4/38 
f 60/62/39 54/54/39 53/53/39 
f 60/62/40 61/63/40 54/54/40 
f 62/64/41 63/33/41 64/65/41 
f 62/64/42 65/66/42 66/67/42 
f 62/64/43 64/65/43 65/66/43 
f 67/68/24 68/69/24 69/70/24 
f 67/68/24 70/71/24 68/69/24 
f 69/70/24 68/69/24 71/34/24 
f 69/70/24 71/34/24 72/72/24 
f 73/73/44 74/33/44 75/74/44 
f 54/75/45 61/76/45 63/77/45 
f 72/78/46 76/79/46 77/8/46 
f 73/80/47 75/81/47 77/82/47 
f 73/80/47 77/82/47 76/83/47 
f 78/84/48 72/85/48 71/86/48 
f 78/84/48 74/87/48 72/85/48 
f 54/75/49 63/77/49 62/88/49 
f 62/88/50 66/89/50 74/87/50 
f 62/88/50 74/87/50 78/84/50 
f 79/90/51 80/91/51 81/92/51 
f 79/90/52 82/93/52 80/91/52 
f 82/93/53 83/94/53 80/91/53 
f 80/91/53 83/94/53 84/95/53 
f 84/95/54 83/94/54 85/96/54 
f 85/96/55 83/94/55 86/97/55 
f 82/93/56 87/98/56 83/94/56 
f 86/97/57 79/90/57 81/92/57 
f 68/99/58 70/100/58 46/101/58 
f 88/102/7 79/90/7 86/97/7 
f 86/97/59 89/103/59 90/104/59 
f 86/97/60 90/104/60 85/96/60 
f 86/97/57 81/92/57 89/103/57 
f 91/105/7 79/90/7 88/102/7 
f 92/106/61 93/107/61 94/108/61 
f 92/106/61 46/101/61 93/107/61 
f 68/99/62 46/101/62 40/109/62 
f 95/110/63 96/111/63 97/112/63 
f 46/101/64 70/100/64 93/107/64 
f 93/107/65 70/100/65 98/113/65 
f 98/113/66 70/100/66 99/114/66 
f 99/114/67 63/77/67 98/113/67 
f 100/115/68 101/116/68 98/113/68 
f 98/113/69 63/77/69 61/76/69 
f 98/113/70 61/76/70 100/115/70 
f 95/110/63 102/117/63 103/118/63 
f 95/110/71 103/118/71 49/119/71 
f 100/120/72 103/118/72 104/121/72 
f 104/121/73 103/118/73 102/117/73 
f 103/122/74 105/123/74 56/124/74 
f 103/122/74 56/124/74 47/125/74 
f 105/123/24 52/126/24 58/127/24 
f 105/123/24 106/128/24 52/126/24 
f 51/129/75 41/130/75 43/131/75 
f 50/132/56 57/133/56 48/134/56 
f 48/134/76 57/133/76 59/135/76 
f 44/136/77 36/137/77 42/138/77 
f 106/139/78 36/137/78 44/136/78 
f 36/137/79 38/140/79 42/138/79 
f 45/141/75 41/130/75 51/129/75 
f 107/142/80 108/143/80 55/144/80 
f 83/94/56 87/98/56 109/145/56 
f 87/98/24 92/146/24 109/145/24 
f 109/145/24 92/146/24 94/147/24 
f 110/148/81 88/102/81 111/149/81 
f 111/149/78 112/150/78 110/148/78 
f 110/148/82 112/150/82 113/150/82 
f 110/148/81 91/105/81 88/102/81 
f 107/142/80 55/144/80 54/75/80 
f 114/151/83 108/143/83 107/142/83 
f 100/120/84 96/111/84 95/110/84 
f 95/110/85 97/112/85 102/117/85 
f 115/152/86 100/120/86 116/153/86 
f 115/152/87 96/111/87 100/120/87 
f 100/120/88 104/121/88 116/153/88 
f 95/110/89 101/154/89 100/120/89 
f 117/155/90 118/1/90 119/156/90 
f 120/157/91 121/34/91 122/33/91 
f 123/1/92 124/158/92 125/159/92 
f 123/1/93 125/159/93 119/160/93 
f 123/1/50 119/160/50 118/51/50 
f 126/161/94 127/162/94 128/4/94 
f 126/161/95 129/163/95 127/162/95 
f 130/164/96 131/165/96 1/166/96 
f 132/167/97 133/168/97 134/4/97 
f 134/4/97 133/168/97 135/169/97 
f 121/4/80 136/170/80 137/171/80 
f 121/4/80 137/171/80 122/1/80 
f 130/172/98 135/1/98 133/4/98 
f 130/172/98 138/173/98 135/1/98 
f 139/174/99 140/175/99 141/176/99 
f 130/164/96 1/177/96 138/178/96 
f 142/179/100 143/180/100 144/181/100 
f 140/182/100 143/180/100 142/179/100 
f 145/183/100 143/180/100 140/182/100 
f 139/174/99 141/176/99 146/184/99 
f 140/175/99 139/174/99 145/185/99 
f 18/186/99 147/187/99 148/188/99 
f 146/184/99 10/189/99 149/190/99 
f 146/184/99 141/176/99 150/191/99 
f 150/191/99 10/189/99 146/184/99 
f 18/186/99 151/192/99 147/187/99 
f 152/193/24 149/165/24 153/194/24 
f 154/195/99 149/190/99 155/196/99 
f 156/197/99 149/190/99 154/195/99 
f 157/198/99 149/190/99 156/197/99 
f 158/199/24 148/200/24 159/201/24 
f 150/202/24 141/203/24 160/204/24 
f 152/193/24 155/205/24 149/165/24 
f 161/206/99 146/184/99 157/198/99 
f 10/207/101 12/208/101 153/209/101 
f 10/207/101 153/209/101 149/203/101 
f 162/210/102 156/211/102 154/212/102 
f 156/211/103 163/213/103 157/214/103 
f 156/211/103 164/215/103 163/213/103 
f 163/213/102 165/1/102 157/214/102 
f 161/34/7 143/216/7 145/217/7 
f 157/198/99 146/184/99 149/190/99 
f 157/214/102 165/1/102 161/4/102 
f 165/33/7 143/216/7 161/34/7 
f 156/211/102 162/210/102 164/215/102 
f 166/218/99 131/219/99 167/220/99 
f 131/219/99 130/221/99 167/220/99 
f 167/220/99 130/221/99 121/222/99 
f 121/222/99 130/221/99 133/223/99 
f 136/224/99 121/222/99 132/225/99 
f 121/222/99 133/223/99 132/225/99 
f 127/226/104 125/227/104 128/228/104 
f 128/228/105 125/227/105 168/229/105 
f 128/228/106 168/229/106 169/230/106 
f 119/231/107 125/227/107 127/226/107 
f 128/228/108 169/230/108 126/232/108 
f 168/229/99 125/227/99 124/233/99 
f 170/234/109 171/235/109 172/236/109 
f 172/236/110 171/235/110 173/237/110 
f 107/238/111 170/234/111 172/236/111 
f 107/238/112 174/239/112 175/240/112 
f 176/241/113 171/235/113 170/234/113 
f 176/241/114 177/242/114 171/235/114 
f 171/235/115 178/243/115 179/244/115 
f 171/235/116 177/242/116 178/243/116 
f 171/235/117 179/244/117 180/245/117 
f 171/235/118 180/245/118 181/246/118 
f 171/235/119 181/246/119 78/1/119 
f 171/235/120 78/1/120 173/237/120 
f 107/238/121 176/241/121 170/234/121 
f 176/241/122 178/243/122 177/242/122 
f 175/240/123 178/243/123 176/241/123 
f 107/238/124 175/240/124 176/241/124 
f 174/239/99 179/244/99 178/243/99 
f 174/239/99 178/243/99 175/240/99 
f 182/247/125 179/244/125 174/239/125 
f 107/238/126 182/247/126 174/239/126 
f 182/247/127 180/245/127 179/244/127 
f 107/238/128 183/248/128 182/247/128 
f 183/248/129 180/245/129 182/247/129 
f 183/248/130 181/246/130 180/245/130 
f 54/249/131 183/248/131 107/238/131 
f 54/249/132 181/246/132 183/248/132 
f 62/216/133 181/246/133 54/249/133 
f 62/216/134 78/1/134 181/246/134 
# 0 polygons - 212 triangles

