# 3ds Max Wavefront OBJ Exporter v0.97b - (c)2007 guruware
# File Created: 06.08.2021 16:46:40

#
# object Shape_IndexedFaceSet_023
#

v  0.0703 0.7274 -6.6028
v  0.0699 0.0109 -6.0901
v  0.0704 0.7279 -6.0908
v  3.9094 0.0131 -1.2266
v  3.6540 0.7816 -0.9714
v  3.6535 0.0136 -0.9706
v  3.9100 0.7811 -1.2274
v  1.7588 0.0092 -6.6023
v  1.7588 0.0097 -6.0913
v  0.0698 0.0104 -6.6021
v  1.7589 0.2142 -6.6025
v  1.7590 0.2147 -6.0905
v  2.6029 0.0178 2.4985
v  4.0901 0.0184 4.0443
v  3.5182 0.0191 4.3304
v  2.6298 0.7807 -2.5072
v  2.6293 0.0127 -2.5065
v  2.3733 0.0132 -2.2504
v  2.3739 0.7812 -2.2512
v  3.1749 0.0171 2.2114
# 20 vertices

vn -1.0000 0.0007 0.0001
vn 0.7072 0.0002 0.7070
vn -0.0007 -1.0000 0.0010
vn 1.0000 -0.0007 -0.0001
vn -0.7072 -0.0002 -0.7070
# 5 vertex normals

vt -0.6953 0.0352 0.0000
vt -1.3594 0.9668 0.0000
vt -1.3594 0.0352 0.0000
vt 0.0000 0.9668 0.0000
vt 0.4395 0.3145 0.0000
vt 0.4395 0.9668 0.0000
vt -0.0293 0.3281 0.0000
vt -0.9277 1.2148 0.0000
vt -0.9277 0.7188 0.0000
vt 0.7168 0.7168 0.0000
vt 0.7168 1.2148 0.0000
vt 1.9648 0.9668 0.0000
vt -0.0293 0.9707 0.0000
vt 0.0000 0.1738 0.0000
vt 1.9648 0.1680 0.0000
vt -1.7500 -7.6543 0.0000
vt -3.1992 -9.1621 0.0000
vt -2.6406 -9.4395 0.0000
vt -0.6953 0.9668 0.0000
vt 0.4395 0.0000 0.0000
vt 0.4395 0.9004 0.0000
vt 0.0000 0.9004 0.0000
vt 0.0000 0.0000 0.0000
vt -1.7754 -2.7754 0.0000
vt -3.0234 -4.0234 0.0000
vt -2.7734 -4.2734 0.0000
vt -1.5273 -3.0254 0.0000
vt -2.3066 -7.3750 0.0000
# 28 texture coords

o Shape_IndexedFaceSet_023
g Shape_IndexedFaceSet_023
s off
f 1/1/1 2/2/1 3/3/1 
f 4/4/2 5/5/2 6/6/2 
f 4/4/2 7/7/2 5/5/2 
f 8/8/3 9/9/3 2/10/3 
f 8/8/3 2/10/3 10/11/3 
f 9/12/4 8/13/4 11/14/4 
f 9/12/4 11/14/4 12/15/4 
f 13/16/3 14/17/3 15/18/3 
f 1/1/1 10/19/1 2/2/1 
f 16/20/5 17/21/5 18/22/5 
f 16/20/5 18/22/5 19/23/5 
f 17/24/3 4/25/3 6/26/3 
f 17/24/3 6/26/3 18/27/3 
f 13/16/3 20/28/3 14/17/3 
# 0 polygons - 14 triangles

