# 3ds Max Wavefront OBJ Exporter v0.97b - (c)2007 guruware
# File Created: 06.08.2021 16:59:06

#
# object Shape_IndexedFaceSet_025
#

v  -5.2907 1.9079 2.0516
v  -2.2201 1.7597 0.0644
v  -2.1971 1.6878 0.1884
v  -2.2307 2.5382 6.4505
v  1.1941 2.6270 4.6420
v  -2.2307 2.4873 6.5786
v  1.0221 2.6790 4.5850
v  -2.2307 2.4876 6.8346
v  1.5381 2.6269 4.7550
v  -2.2306 2.5387 6.9625
v  1.7101 2.6778 4.8109
v  0.6740 2.7287 3.0400
v  -1.2393 1.3868 0.8196
v  -2.0341 1.5956 1.0785
v  0.3080 2.7752 3.2250
v  0.4220 2.7260 3.1670
v  0.3239 2.7693 2.3690
v  0.4409 2.8211 2.2969
v  0.6720 2.7944 2.7539
v  0.7870 2.7816 2.9829
v  0.0899 2.7696 2.5130
v  0.1890 2.7920 2.9980
v  -0.0270 2.8207 2.5850
v  0.3040 2.7409 2.9400
v  0.5549 2.7426 2.8130
v  -4.1148 3.0608 2.8023
v  -2.2310 2.9144 1.7142
v  -4.0047 3.1118 2.8662
v  -3.5598 4.3168 3.1209
v  -3.5596 4.3183 4.6569
v  -3.6709 4.2128 3.0570
v  -4.0036 4.2669 4.9130
v  -3.8929 4.2128 2.9291
v  -4.0039 4.2648 2.8650
v  1.8556 1.0414 1.5836
v  0.4397 1.0431 2.2987
v  -1.6482 1.3887 1.4227
v  -2.2311 2.9141 1.4582
v  -2.2310 2.9655 1.8421
v  -2.2311 2.9650 1.3301
v  -4.3368 3.0608 2.6743
v  -4.4478 3.1119 2.6103
v  -4.1144 3.2070 4.9781
v  -4.0044 3.2579 4.9140
v  -4.3364 3.2073 5.1061
v  -4.4473 3.2585 5.1701
v  -2.2299 3.6391 6.3214
v  -2.2299 3.6912 6.4494
v  -2.2300 3.6388 6.0654
v  -0.3462 3.9222 2.8009
v  -0.3460 3.7804 4.9770
v  -0.4562 3.9743 2.8649
v  -2.2299 3.6907 5.9374
v  -0.1240 3.7804 5.1050
v  -0.0090 3.8404 5.1759
v  -0.4560 3.8324 4.9130
v  -2.2302 4.0667 1.9690
v  -0.1242 3.9219 2.6729
v  -2.2302 4.0669 2.2250
v  -0.0262 3.9737 2.5838
v  -2.2301 4.1180 2.3530
v  -5.2901 2.0556 5.7314
v  -5.4240 2.1068 5.8114
v  -2.2302 4.1175 1.8410
v  -3.5598 4.3158 3.1209
v  -4.5596 1.9079 2.5475
v  -4.4481 2.1055 5.1713
v  -4.5592 2.0546 5.2353
v  -5.4116 1.9589 1.9846
v  -4.4486 1.9589 2.6114
v  -2.0110 1.6327 1.2035
v  -1.7190 2.9324 2.0191
v  -1.7190 2.8822 1.8962
v  -1.7191 2.8840 1.6502
v  -1.7191 2.9369 1.5271
# 75 vertices

vn -0.3192 -0.8444 -0.4302
vn -0.1684 -0.9161 -0.3639
vn -0.1622 -0.9217 -0.3524
vn 0.2325 -0.9032 0.3608
vn 0.0135 -0.9990 -0.0424
vn 0.0413 -0.9991 0.0010
vn 0.1870 -0.9411 0.2817
vn 0.3437 -0.9112 -0.2273
vn 0.0660 -0.8580 -0.5094
vn -0.2691 -0.9618 -0.0503
vn -0.3187 -0.9425 0.1008
vn -0.3426 -0.9322 0.1167
vn 0.0261 -0.9964 -0.0806
vn -0.0153 -0.9986 -0.0516
vn 0.2904 -0.9355 -0.2014
vn 0.3225 -0.9218 -0.2152
vn -0.3393 -0.9339 0.1125
vn -0.3546 -0.9279 0.1153
vn -0.0217 -0.9982 -0.0562
vn -0.0290 -0.9986 -0.0450
vn 0.3035 -0.9285 -0.2138
vn 0.1714 -0.8927 0.4169
vn 0.6832 -0.7302 0.0007
vn 0.1346 -0.9903 0.0345
vn -0.0396 -0.9969 0.0685
vn -0.4249 -0.9053 0.0010
vn -0.0744 -0.9867 -0.1448
vn -0.3114 -0.9272 -0.2083
vn -0.0769 -0.9970 0.0010
vn 0.1364 -0.9199 0.3676
vn -0.2678 -0.8954 -0.3557
vn -0.0348 -0.9976 0.0601
vn -0.2416 -0.9185 -0.3130
vn 0.4474 -0.8924 0.0599
vn 0.0334 -0.9976 0.0601
vn -0.0387 -0.9970 0.0670
vn -0.0369 -0.9254 0.3771
vn 0.3879 -0.9194 0.0655
vn -0.4426 -0.8951 0.0540
vn -0.3928 -0.9181 0.0526
vn -0.1103 -0.8607 0.4969
vn 0.1110 -0.9746 0.1946
vn 0.2003 -0.9797 0.0010
vn -0.4550 -0.8886 -0.0579
vn 0.3942 -0.8518 -0.3450
vn 0.3274 -0.9286 -0.1749
vn 0.2697 -0.8918 0.3632
vn 0.0334 -0.9978 -0.0581
vn 0.0755 -0.9971 0.0010
vn 0.2582 -0.9025 0.3446
vn -0.1761 -0.8900 -0.4205
vn -0.1413 -0.9175 -0.3717
vn -0.0689 -0.9976 0.0010
vn -0.0348 -0.9977 -0.0581
vn -0.3963 -0.9159 -0.0634
vn 0.0373 -0.9972 -0.0650
vn 0.4862 -0.8724 -0.0508
vn 0.4316 -0.9007 -0.0492
vn -0.1914 -0.8958 0.4011
vn -0.1794 -0.9135 0.3651
vn -0.0504 -0.9951 -0.0852
vn -0.0489 -0.8765 0.4789
vn 0.0826 -0.8982 -0.4319
vn 0.0637 -0.9275 -0.3684
vn 0.2952 -0.7129 0.6361
vn -0.1001 -0.9950 0.0010
vn -0.0438 -0.9962 0.0758
vn 0.0760 -0.9259 0.3700
vn -0.2828 -0.8914 -0.3542
vn -0.2532 -0.9176 -0.3065
vn 0.4391 -0.8971 0.0489
vn -0.0082 -0.9286 0.3711
vn 0.3598 -0.8671 -0.3444
vn 0.3034 -0.9290 -0.2117
vn -0.3382 -0.9404 0.0352
vn -0.4055 -0.9133 0.0367
vn 0.3916 -0.9187 0.0525
vn 0.1436 -0.8801 0.4525
vn 0.0426 -0.9599 0.2772
vn -0.2317 -0.9289 -0.2888
vn -0.1283 -0.9882 -0.0839
vn -0.1802 -0.9161 0.3583
vn -0.1833 -0.9103 0.3712
vn -0.0404 -0.9972 -0.0635
vn -0.0536 -0.9985 -0.0071
vn 0.0911 -0.9150 -0.3931
vn 0.1107 -0.8833 -0.4556
# 87 vertex normals

vt 0.7227 -5.8809 0.0000
vt 0.9668 1.2500 0.0000
vt 0.7188 1.1719 0.0000
vt 0.0000 0.9668 0.0000
vt 0.2285 -6.5820 0.0000
vt 0.1836 1.0918 0.0000
vt 0.0000 -6.3496 0.0000
vt 0.7520 0.8496 0.0000
vt 0.7129 -7.5469 0.0000
vt 0.9668 0.9668 0.0000
vt 0.1992 -7.0625 0.0000
vt 0.3145 0.6113 0.0000
vt 0.9668 -7.7910 0.0000
vt 0.7324 -2.0215 0.0000
vt 0.9590 1.9707 0.0000
vt 0.7051 1.7246 0.0000
vt 0.9668 0.9531 0.0000
vt 0.8711 -0.4043 0.0000
vt 0.9668 -0.5293 0.0000
vt 0.1738 0.3652 0.0000
vt 0.2109 1.2207 0.0000
vt -0.0449 -2.0352 0.0000
vt 0.1992 -2.0273 0.0000
vt 0.7246 -2.2051 0.0000
vt 0.9941 -2.2305 0.0000
vt 0.9922 -1.2324 0.0000
vt 0.9980 -2.0254 0.0000
vt 0.1895 -2.1602 0.0000
vt -0.0586 -1.2324 0.0000
vt -0.0723 -2.1445 0.0000
vt 0.1992 -1.2285 0.0000
vt 0.7246 -1.2266 0.0000
vt 0.2266 -4.1719 0.0000
vt 0.2266 0.8828 0.0000
vt 0.0000 -4.0234 0.0000
vt 0.0000 -2.5566 0.0000
vt 0.2227 1.1113 0.0000
vt 0.9863 -3.1426 0.0000
vt 0.7305 1.4043 0.0000
vt 0.9863 1.5527 0.0000
vt 0.9668 -1.6602 0.0000
vt 0.9668 1.4648 0.0000
vt -0.0469 0.2988 0.0000
vt -0.0137 1.0059 0.0000
vt 0.7402 1.1777 0.0000
vt 0.0000 0.7344 0.0000
vt 0.9961 1.3262 0.0000
vt 0.7402 -4.4688 0.0000
vt 0.9980 -4.6172 0.0000
vt 0.1953 -4.5332 0.0000
vt 0.1953 0.5215 0.0000
vt -0.0605 -4.3848 0.0000
vt 0.7090 -4.8301 0.0000
vt 0.7090 0.8184 0.0000
vt 0.7090 -4.8633 0.0000
vt 0.9668 -5.0117 0.0000
vt -0.0586 0.3730 0.0000
vt 0.9668 -4.9785 0.0000
vt 0.7109 0.8184 0.0000
vt 0.1992 0.5234 0.0000
vt 0.1934 -4.5684 0.0000
vt 0.2266 -3.9395 0.0000
vt 0.2266 1.1133 0.0000
vt 0.0000 -3.7910 0.0000
vt -0.0625 -4.4219 0.0000
vt -0.0547 0.3770 0.0000
vt 0.7402 1.4102 0.0000
vt 0.7402 -4.2363 0.0000
vt 0.9961 1.5586 0.0000
vt 0.9980 -4.3848 0.0000
vt 0.6855 -4.3848 0.0000
vt 0.7422 0.7734 0.0000
vt 0.1250 -4.1914 0.0000
vt 0.2930 0.3848 0.0000
vt 0.0684 0.1895 0.0000
vt -0.1543 -4.0938 0.0000
vt 0.7109 1.8145 0.0000
vt 0.7090 -5.0469 0.0000
vt 0.9668 1.9629 0.0000
vt 0.9668 -4.4824 0.0000
vt 0.2266 -3.1738 0.0000
vt 0.2266 0.6934 0.0000
vt 0.0000 -3.0254 0.0000
vt 0.7402 0.9883 0.0000
vt 0.7402 -3.4707 0.0000
vt 0.0000 0.5469 0.0000
vt 0.9980 1.1367 0.0000
vt 0.9980 -3.6191 0.0000
vt 0.2168 1.1074 0.0000
vt 0.0000 -4.7695 0.0000
vt 0.2168 -4.9121 0.0000
vt 0.9668 -5.1953 0.0000
vt 0.1992 1.5195 0.0000
vt -0.0625 -4.6035 0.0000
vt 0.1934 -4.7520 0.0000
vt -0.0566 1.3711 0.0000
vt 0.9629 -5.3418 0.0000
vt 0.9629 1.5391 0.0000
vt 0.7129 -5.1992 0.0000
vt 0.7129 1.3945 0.0000
vt 0.8086 1.0781 0.0000
vt 0.9688 -4.5566 0.0000
vt 0.8086 -4.6484 0.0000
vt 0.9668 -6.0195 0.0000
vt 1.0039 -1.5898 0.0000
vt 0.0313 -1.8438 0.0000
vt -0.0566 -3.1582 0.0000
vt 0.2500 0.9941 0.0000
vt 0.0176 0.7988 0.0000
vt 0.1934 -3.2441 0.0000
vt 0.7246 1.3750 0.0000
vt 0.7051 -3.4277 0.0000
vt 0.9668 1.5605 0.0000
vt 0.9668 -3.5234 0.0000
# 114 texture coords

o Shape_IndexedFaceSet_025
g Shape_IndexedFaceSet_025
s off
f 1/1/1 2/2/1 3/3/1 
f 4/4/2 5/5/2 6/6/2 
f 7/7/3 5/5/3 4/4/3 
f 8/8/4 9/9/4 10/10/4 
f 8/8/5 5/11/5 9/9/5 
f 6/12/6 5/11/6 8/8/6 
f 10/10/7 9/9/7 11/13/7 
f 12/14/8 11/15/8 9/16/8 
f 13/17/9 3/18/9 2/19/9 
f 13/17/10 14/20/10 3/18/10 
f 5/21/11 7/4/11 15/22/11 
f 5/21/12 15/22/12 16/23/12 
f 16/23/13 9/16/13 5/21/13 
f 16/23/14 12/14/14 9/16/14 
f 17/24/15 18/25/15 19/26/15 
f 12/14/16 20/27/16 11/15/16 
f 21/28/17 22/29/17 23/30/17 
f 24/31/18 22/29/18 21/28/18 
f 21/28/19 25/32/19 24/31/19 
f 21/28/20 17/24/20 25/32/20 
f 17/24/21 19/26/21 25/32/21 
f 26/33/22 27/34/22 28/35/22 
f 29/4/23 30/36/23 31/37/23 
f 30/36/24 32/38/24 33/39/24 
f 30/36/25 33/39/25 31/37/25 
f 34/40/26 33/39/26 32/38/26 
f 13/41/27 35/42/27 36/43/27 
f 13/17/28 37/44/28 14/20/28 
f 26/33/29 38/45/29 27/34/29 
f 28/35/30 27/34/30 39/46/30 
f 40/47/31 38/45/31 41/48/31 
f 41/48/32 38/45/32 26/33/32 
f 40/47/33 41/48/33 42/49/33 
f 43/50/34 26/51/34 44/52/34 
f 45/53/35 41/54/35 43/50/35 
f 43/50/36 41/54/36 26/51/36 
f 46/10/37 47/55/37 48/56/37 
f 44/52/38 26/51/38 28/57/38 
f 42/10/39 41/54/39 45/53/39 
f 42/10/40 45/53/40 46/58/40 
f 45/59/41 47/55/41 46/10/41 
f 43/60/42 49/61/42 45/59/42 
f 45/59/43 49/61/43 47/55/43 
f 50/62/44 51/63/44 52/64/44 
f 43/60/45 53/65/45 49/61/45 
f 44/66/46 53/65/46 43/60/46 
f 47/67/47 54/68/47 48/69/47 
f 47/67/48 51/62/48 54/68/48 
f 49/63/49 51/62/49 47/67/49 
f 48/69/50 54/68/50 55/70/50 
f 56/64/51 51/62/51 49/63/51 
f 56/64/52 49/63/52 53/4/52 
f 57/71/53 58/72/53 59/73/53 
f 58/68/54 54/67/54 50/62/54 
f 52/64/55 51/63/55 56/4/55 
f 50/62/56 54/67/56 51/63/56 
f 58/68/57 55/69/57 54/67/57 
f 60/70/58 55/69/58 58/68/58 
f 59/73/59 50/74/59 52/75/59 
f 59/73/60 52/75/60 61/76/60 
f 59/73/61 58/72/61 50/74/61 
f 62/77/62 8/78/62 63/79/62 
f 60/10/63 58/72/63 57/71/63 
f 60/10/64 57/71/64 64/80/64 
f 31/81/65 59/82/65 65/83/65 
f 31/81/66 57/84/66 59/82/66 
f 33/85/67 57/84/67 31/81/67 
f 65/83/68 59/82/68 61/86/68 
f 64/87/69 57/84/69 33/85/69 
f 64/87/70 33/85/70 34/88/70 
f 66/89/71 67/90/71 68/91/71 
f 63/79/72 8/78/72 10/92/72 
f 68/93/73 4/94/73 6/95/73 
f 67/96/74 4/94/74 68/93/74 
f 63/97/75 69/98/75 62/99/75 
f 62/99/76 69/98/76 1/100/76 
f 70/4/77 67/90/77 66/89/77 
f 66/101/78 71/102/78 70/10/78 
f 66/101/79 14/103/79 71/102/79 
f 1/1/80 69/104/80 2/2/80 
f 13/105/81 36/4/81 37/106/81 
f 72/107/82 21/108/82 23/109/82 
f 72/107/83 73/110/83 21/108/83 
f 73/110/84 17/111/84 21/108/84 
f 73/110/85 74/112/85 17/111/85 
f 18/113/86 74/112/86 75/114/86 
f 18/113/87 17/111/87 74/112/87 
# 0 polygons - 87 triangles

