# 3ds Max Wavefront OBJ Exporter v0.97b - (c)2007 guruware
# File Created: 06.08.2021 16:32:59

#
# object Shape_IndexedFaceSet_010
#

v  0.0703 0.7784 -6.6029
v  0.0704 0.7789 -6.0909
v  -0.9535 0.7801 -5.5788
v  -0.9536 0.7796 -6.0908
v  -1.4655 0.7805 -5.5787
v  2.6298 0.7807 -2.5072
v  2.3739 0.7812 -2.2512
v  2.3738 0.7806 -2.7632
v  1.7590 0.2657 -6.0896
v  2.3729 0.2648 -6.6027
v  2.3730 0.2653 -6.0907
v  1.7589 0.2652 -6.6026
v  3.3969 0.1876 -6.0907
v  3.3969 0.1870 -6.6027
v  4.4208 0.0078 -6.0907
v  5.6367 0.0065 -6.6028
v  5.6368 0.0071 -6.0268
v  4.4207 0.0073 -6.6027
v  -0.9535 0.7806 -5.0668
v  -1.4654 0.7810 -5.0667
v  -0.4414 0.7808 -4.5548
v  -0.4413 0.7813 -4.0428
v  3.9100 0.7811 -1.2274
v  3.9361 0.7817 -0.6914
v  3.6540 0.7816 -0.9714
v  4.2070 0.7812 -0.9615
# 26 vertices

vn -0.0007 -1.0000 0.0010
vn -0.0757 -0.9971 0.0010
vn -0.1729 -0.9849 0.0010
# 3 vertex normals

vt 0.9668 1.4492 0.0000
vt -0.0254 0.9551 0.0000
vt -0.0254 -1.5254 0.0000
vt 0.9668 -1.0293 0.0000
vt 0.9668 1.9629 0.0000
vt 0.0000 0.9668 0.0000
vt 0.9668 0.0000 0.0000
vt 0.9961 1.2227 0.0000
vt -0.0117 1.2227 0.0000
vt 0.9961 0.2168 0.0000
vt 0.0000 -1.2266 0.0000
vt 0.0000 0.0000 0.0000
vt 0.9668 -1.2266 0.0000
vt 0.0000 1.9688 0.0000
vt 0.9668 1.9688 0.0000
vt 0.0586 0.0000 0.0000
vt 0.9668 2.1211 0.0000
vt -0.0527 2.1211 0.0000
vt 0.9668 3.9844 0.0000
vt 0.0000 3.9844 0.0000
vt 0.9668 0.9668 0.0000
vt 1.0059 1.2852 0.0000
vt 0.0000 1.9766 0.0000
vt 1.0059 -7.7090 0.0000
vt 0.0000 -7.0176 0.0000
vt 0.9766 0.9961 0.0000
vt 0.0000 -2.0273 0.0000
vt 0.9766 -1.0195 0.0000
vt 0.0000 2.0039 0.0000
vt -0.0898 -0.0332 0.0000
# 30 texture coords

o Shape_IndexedFaceSet_010
g Shape_IndexedFaceSet_010
s off
f 1/1/1 2/2/1 3/3/1 
f 1/1/1 3/3/1 4/4/1 
f 4/5/1 3/6/1 5/7/1 
f 6/8/1 7/9/1 8/10/1 
f 9/11/1 10/7/1 11/12/1 
f 12/13/1 10/7/1 9/11/1 
f 11/12/2 10/7/2 13/14/2 
f 13/14/2 10/7/2 14/15/2 
f 15/16/1 16/17/1 17/18/1 
f 15/16/1 18/7/1 16/17/1 
f 13/14/3 18/19/3 15/20/3 
f 13/14/3 14/15/3 18/19/3 
f 19/21/1 5/12/1 3/7/1 
f 19/21/1 20/6/1 5/12/1 
f 8/22/1 7/23/1 21/24/1 
f 21/24/1 7/23/1 22/25/1 
f 21/26/1 20/27/1 19/28/1 
f 21/26/1 22/29/1 20/27/1 
f 23/6/1 24/7/1 25/21/1 
f 23/6/1 26/30/1 24/7/1 
# 0 polygons - 20 triangles

