# 3ds Max Wavefront OBJ Exporter v0.97b - (c)2007 guruware
# File Created: 06.08.2021 17:28:07

#
# object Shape_IndexedFaceSet_013
#

v  3.9916 1.7612 5.8095
v  3.2534 1.7604 4.4616
v  3.2994 1.7603 4.4386
v  3.9456 1.7103 5.8326
v  3.9916 1.7102 5.8096
v  3.2994 1.7093 4.4387
v  3.2534 1.7094 4.4617
v  3.9456 1.7613 5.8325
v  3.9911 1.0952 5.8102
v  3.2530 1.0944 4.4623
v  3.2980 1.0943 4.4393
v  3.2979 1.0433 4.4394
v  3.9911 1.0442 5.8103
v  3.9451 1.0443 5.8333
v  3.9451 1.0953 5.8332
v  3.2529 1.0434 4.4624
v  1.8560 1.7074 1.5829
v  3.1254 1.7601 4.0957
v  1.8561 1.7584 1.5828
v  3.0803 1.7091 4.1187
v  1.8100 1.7075 1.6059
v  3.1253 1.7091 4.0957
v  1.8556 1.0414 1.5836
v  3.1249 1.0431 4.0964
v  3.1249 1.0941 4.0963
v  3.0804 1.7601 4.1187
v  1.8101 1.7585 1.6058
v  1.8556 1.0924 1.5835
v  1.8096 1.0415 1.6066
v  3.0799 1.0941 4.1193
v  3.0799 1.0431 4.1194
v  1.8096 1.0925 1.6065
v  3.2984 1.7093 4.4387
v  3.2984 1.7603 4.4386
v  6.6348 0.1340 -6.4171
v  6.6348 0.1342 -6.2131
v  6.6345 -0.3768 -6.2126
v  6.4308 0.1341 -6.4170
v  6.6344 -0.3770 -6.4166
v  6.4308 0.1343 -6.2130
v  6.4305 -0.3767 -6.2125
v  6.4305 -0.3769 -6.4165
v  5.9589 1.3467 2.7127
v  5.9589 1.3469 2.9177
v  5.9585 0.8349 2.9182
v  5.7535 0.8351 2.9183
v  5.9585 0.8347 2.7132
v  5.7535 0.8349 2.7133
v  5.7539 1.3471 2.9177
v  5.7539 1.3469 2.7128
v  3.0136 0.3712 -1.7389
v  3.1419 0.7302 -1.7393
v  3.1417 0.3713 -1.6109
v  3.1414 0.0133 -1.6105
v  3.0134 0.0132 -1.7385
v  3.2694 0.0131 -1.7385
v  3.2696 0.3711 -1.7389
v  3.1414 0.0130 -1.8665
v  3.1416 0.3710 -1.8669
v  -0.5960 0.0124 -5.0660
v  -0.9540 0.0126 -5.0660
v  -0.5961 0.0119 -5.5780
v  -5.4050 2.1072 6.2464
v  -5.4050 2.1074 6.4514
v  -5.4053 1.5954 6.4519
v  -0.9541 0.0121 -5.5780
v  -5.6103 1.5956 6.4519
v  -5.6099 2.1076 6.4514
v  -5.6103 1.5954 6.2469
v  -5.4053 1.5952 6.2469
v  -3.3059 3.0931 1.6371
v  -3.3059 3.0933 1.8421
v  -3.3062 2.5813 1.8427
v  -5.6100 2.1074 6.2464
v  -3.5112 2.5814 1.8427
v  -3.5113 2.5812 1.6377
v  -3.3063 2.5811 1.6377
v  -3.5109 3.0932 1.6372
v  -3.5109 3.0934 1.8422
v  -3.4094 3.0896 -1.8438
v  -3.6134 3.0897 -1.8438
v  -3.6137 2.5777 -1.8433
v  -3.6138 2.5775 -2.0483
v  -3.4098 2.5774 -2.0483
v  -3.4097 2.5776 -1.8433
v  -3.6134 3.0895 -2.0488
v  -3.4094 3.0894 -2.0488
# 87 vertices

vn -0.0007 -1.0000 0.0010
vn 0.0007 1.0000 -0.0010
vn -0.8927 0.0011 0.4507
vn 0.8927 -0.0011 -0.4507
vn -0.8924 0.0011 0.4512
vn -0.8926 0.0011 0.4509
vn -0.4473 -0.0006 -0.8944
vn 0.4552 0.0006 0.8904
vn 0.8924 -0.0011 -0.4512
vn 0.4473 0.0006 0.8944
vn -0.4552 -0.0006 -0.8904
vn -0.8928 0.0011 0.4505
vn -0.8928 0.0011 0.4504
vn 1.0000 -0.0007 -0.0001
vn 0.8928 -0.0011 -0.4504
vn -0.0001 -0.0010 -1.0000
vn 0.0001 0.0010 1.0000
vn -1.0000 0.0007 0.0001
vn 0.6854 -0.2456 -0.6855
vn 0.7070 -0.0012 -0.7072
vn -0.7072 -0.0002 -0.7070
vn -0.7070 0.0012 0.7072
vn 0.7072 0.0002 0.7070
vn -0.6857 -0.2433 0.6860
vn -0.6859 -0.2447 -0.6853
vn 0.6856 -0.2443 0.6858
# 26 vertex normals

vt 11.9453 0.5684 0.0000
vt 0.0000 0.9668 0.0000
vt 0.0000 0.5684 0.0000
vt 11.9453 0.9668 0.0000
vt 0.9668 1.3633 0.0000
vt -11.0078 0.9668 0.0000
vt 0.9668 0.9668 0.0000
vt -11.0078 1.3633 0.0000
vt 21.9258 1.3633 0.0000
vt 21.9258 0.9668 0.0000
vt 0.9668 13.9395 0.0000
vt 0.0000 12.9414 0.0000
vt 0.9668 12.9414 0.0000
vt 0.0000 13.9395 0.0000
vt 0.3672 0.3672 0.0000
vt 0.0000 0.0000 0.0000
vt 0.3672 0.0000 0.0000
vt 0.0000 0.3672 0.0000
vt 0.9668 -20.9902 0.0000
vt 0.5684 0.9668 0.0000
vt 0.5684 -20.9902 0.0000
vt 0.0000 1.3633 0.0000
vt -20.9883 0.5684 0.0000
vt 0.9668 0.5684 0.0000
vt -20.9883 0.9668 0.0000
vt 2.9629 0.0000 0.0000
vt 2.9629 0.3672 0.0000
vt 0.9668 0.0000 0.0000
vt 0.9668 2.4629 0.0000
vt 2.9629 0.5684 0.0000
vt 2.9629 0.9668 0.0000
vt 0.9668 2.4609 0.0000
vt 0.0000 2.4629 0.0000
vt 0.0000 2.4609 0.0000
vt 0.4590 -1.0352 0.0000
vt 0.9492 0.9668 0.0000
vt 0.9668 1.9629 0.0000
vt -0.0137 1.9629 0.0000
vt -0.0137 0.0234 0.0000
vt 0.9492 1.9082 0.0000
vt 0.9492 0.0000 0.0000
vt 0.0000 1.9082 0.0000
vt 0.9668 0.0234 0.0000
vt -0.0137 0.9668 0.0000
vt 0.4766 -1.0352 0.0000
vt 0.9668 -0.2617 0.0000
vt 0.0000 -0.2617 0.0000
vt 0.0000 1.9629 0.0000
vt 0.0000 2.1934 0.0000
vt 0.9668 2.1934 0.0000
# 50 texture coords

o Shape_IndexedFaceSet_013
g Shape_IndexedFaceSet_013
s off
f 1/1/1 2/2/1 3/3/1 
f 4/4/2 5/1/2 6/3/2 
f 4/4/2 6/3/2 7/2/2 
f 6/5/3 1/6/3 3/7/3 
f 6/5/3 5/8/3 1/6/3 
f 4/4/4 2/3/4 8/1/4 
f 4/4/4 7/2/4 2/3/4 
f 9/1/1 10/2/1 11/3/1 
f 1/1/1 8/4/1 2/2/1 
f 12/5/5 13/8/5 9/6/5 
f 12/5/5 9/6/5 11/7/5 
f 14/4/4 10/3/4 15/1/4 
f 14/4/4 16/2/4 10/3/4 
f 9/1/1 15/4/1 10/2/1 
f 17/9/6 18/2/6 19/10/6 
f 13/11/7 15/12/7 9/13/7 
f 13/11/7 14/14/7 15/12/7 
f 16/15/8 11/16/8 10/17/8 
f 16/15/8 12/18/8 11/16/8 
f 20/19/2 17/20/2 21/7/2 
f 20/19/2 22/21/2 17/20/2 
f 23/9/6 24/22/6 25/2/6 
f 17/9/6 22/22/6 18/2/6 
f 18/21/1 26/19/1 27/7/1 
f 18/21/1 27/7/1 19/20/1 
f 20/7/9 27/23/9 26/24/9 
f 20/7/9 21/25/9 27/23/9 
f 23/9/6 25/2/6 28/10/6 
f 29/15/10 23/18/10 28/16/10 
f 24/15/11 30/16/11 25/17/11 
f 24/15/11 31/18/11 30/16/11 
f 31/7/9 29/25/9 32/23/9 
f 31/7/9 32/23/9 30/24/9 
f 25/21/1 30/19/1 32/7/1 
f 25/21/1 32/7/1 28/20/1 
f 18/26/12 22/27/12 33/18/12 
f 29/15/10 28/16/10 32/17/10 
f 21/15/10 19/16/10 27/17/10 
f 21/15/10 17/18/10 19/16/10 
f 5/7/7 4/2/7 8/16/7 
f 5/7/7 8/16/7 1/28/7 
f 18/26/13 33/18/13 34/16/13 
f 35/16/14 36/28/14 37/29/14 
f 26/26/1 34/18/1 2/16/1 
f 26/26/1 18/27/1 34/18/1 
f 20/18/15 2/26/15 7/27/15 
f 20/18/15 26/16/15 2/26/15 
f 22/2/2 7/30/2 33/31/2 
f 22/2/2 20/3/2 7/30/2 
f 38/16/16 35/28/16 39/32/16 
f 35/16/14 37/29/14 39/33/14 
f 36/16/17 40/28/17 41/29/17 
f 36/16/17 41/29/17 37/33/17 
f 40/16/18 38/28/18 42/32/18 
f 40/16/18 42/32/18 41/34/18 
f 38/16/16 39/32/16 42/34/16 
f 43/16/14 44/28/14 45/29/14 
f 39/7/1 41/16/1 42/28/1 
f 39/7/1 37/2/1 41/16/1 
f 46/16/1 47/7/1 45/2/1 
f 46/16/1 48/28/1 47/7/1 
f 44/16/17 49/28/17 46/29/17 
f 44/16/17 46/29/17 45/33/17 
f 43/16/14 45/29/14 47/33/14 
f 50/16/16 47/32/16 48/34/16 
f 50/16/16 43/28/16 47/32/16 
f 49/16/18 50/28/18 48/32/18 
f 49/16/18 48/32/18 46/34/18 
f 51/2/19 52/35/19 53/36/19 
f 54/37/20 55/38/20 51/39/20 
f 56/40/21 53/16/21 57/41/21 
f 56/40/21 54/42/21 53/16/21 
f 58/40/22 56/42/22 57/16/22 
f 58/40/22 57/16/22 59/41/22 
f 55/37/23 58/38/23 59/39/23 
f 55/37/23 59/39/23 51/43/23 
f 60/2/1 61/16/1 62/7/1 
f 54/37/20 51/39/20 53/43/20 
f 57/44/24 52/45/24 59/7/24 
f 53/2/25 52/35/25 57/36/25 
f 59/2/26 52/35/26 51/36/26 
f 63/16/14 64/28/14 65/29/14 
f 62/7/1 61/16/1 66/28/1 
f 64/16/17 67/29/17 65/33/17 
f 64/16/17 68/28/17 67/29/17 
f 65/16/1 69/7/1 70/2/1 
f 65/16/1 67/28/1 69/7/1 
f 63/16/14 65/29/14 70/33/14 
f 71/46/14 72/47/14 73/48/14 
f 74/16/16 70/29/16 69/33/16 
f 74/16/16 63/28/16 70/29/16 
f 68/16/18 69/29/18 67/33/18 
f 68/16/18 74/28/18 69/29/18 
f 75/28/1 76/7/1 77/2/1 
f 75/28/1 77/2/1 73/16/1 
f 72/28/17 75/49/17 73/50/17 
f 71/46/14 73/48/14 77/37/14 
f 78/16/16 77/50/16 76/49/16 
f 78/16/16 71/28/16 77/50/16 
f 79/47/18 76/37/18 75/48/18 
f 79/47/18 78/46/18 76/37/18 
f 72/28/17 79/16/17 75/49/17 
f 80/16/17 81/28/17 82/29/17 
f 82/2/1 83/16/1 84/28/1 
f 82/2/1 84/28/1 85/7/1 
f 81/16/18 86/28/18 83/29/18 
f 81/16/18 83/29/18 82/34/18 
f 86/16/16 84/29/16 83/34/16 
f 86/16/16 87/28/16 84/29/16 
f 87/16/14 85/29/14 84/34/14 
f 80/16/17 82/29/17 85/34/17 
f 87/16/14 80/28/14 85/29/14 
# 0 polygons - 112 triangles

